<mxfile host="app.diagrams.net" modified="2023-08-06T08:25:28.382Z" agent="Mozilla/5.0 (Windows NT 10.0; Win64; x64) AppleWebKit/537.36 (KHTML, like Gecko) Chrome/115.0.0.0 Safari/537.36" etag="2MOynxsQDy62jo7SCN_X" version="21.6.6" type="github">
  <diagram name="Page-1" id="f0Zp_-EydIwDWi3Y2i1f">
    <mxGraphModel dx="1642" dy="1534" grid="1" gridSize="10" guides="1" tooltips="1" connect="1" arrows="1" fold="1" page="1" pageScale="1" pageWidth="850" pageHeight="1100" math="0" shadow="0">
      <root>
        <mxCell id="0" />
        <mxCell id="1" parent="0" />
        <mxCell id="eWxijm7cbxG42qx3YV4Q-1" value="&lt;font style=&quot;font-size: 18px;&quot;&gt;&lt;b style=&quot;font-size: 18px;&quot;&gt;students&lt;/b&gt;&lt;/font&gt;" style="rounded=0;whiteSpace=wrap;html=1;fontSize=18;fillColor=#fff2cc;strokeColor=#d6b656;" parent="1" vertex="1">
          <mxGeometry x="60" y="120" width="120" height="60" as="geometry" />
        </mxCell>
        <mxCell id="eWxijm7cbxG42qx3YV4Q-2" value="&lt;font style=&quot;font-size: 18px;&quot;&gt;&lt;b style=&quot;font-size: 18px;&quot;&gt;departments&lt;/b&gt;&lt;/font&gt;" style="rounded=0;whiteSpace=wrap;html=1;fontSize=18;fillColor=#fff2cc;strokeColor=#d6b656;" parent="1" vertex="1">
          <mxGeometry x="600" y="120" width="120" height="60" as="geometry" />
        </mxCell>
        <mxCell id="eWxijm7cbxG42qx3YV4Q-3" value="st_address" style="ellipse;whiteSpace=wrap;html=1;fontSize=18;fillColor=#fff2cc;strokeColor=#d6b656;" parent="1" vertex="1">
          <mxGeometry x="-170" y="120" width="120" height="70" as="geometry" />
        </mxCell>
        <mxCell id="eWxijm7cbxG42qx3YV4Q-4" value="st_age" style="ellipse;whiteSpace=wrap;html=1;fontSize=18;fillColor=#fff2cc;strokeColor=#d6b656;" parent="1" vertex="1">
          <mxGeometry x="-155" y="20" width="120" height="60" as="geometry" />
        </mxCell>
        <mxCell id="eWxijm7cbxG42qx3YV4Q-5" value="st_fname" style="ellipse;whiteSpace=wrap;html=1;fontSize=18;fillColor=#fff2cc;strokeColor=#d6b656;" parent="1" vertex="1">
          <mxGeometry y="-140" width="120" height="75" as="geometry" />
        </mxCell>
        <mxCell id="eWxijm7cbxG42qx3YV4Q-6" value="st_lastname" style="ellipse;whiteSpace=wrap;html=1;fontSize=18;fillColor=#fff2cc;strokeColor=#d6b656;" parent="1" vertex="1">
          <mxGeometry x="-140" y="-120" width="130" height="70" as="geometry" />
        </mxCell>
        <mxCell id="eWxijm7cbxG42qx3YV4Q-7" value="st_name" style="ellipse;whiteSpace=wrap;html=1;fontSize=18;fillColor=#fff2cc;strokeColor=#d6b656;" parent="1" vertex="1">
          <mxGeometry x="-10" y="-20" width="110" height="60" as="geometry" />
        </mxCell>
        <mxCell id="eWxijm7cbxG42qx3YV4Q-8" value="&lt;u style=&quot;font-size: 18px;&quot;&gt;st_id&lt;/u&gt;" style="ellipse;whiteSpace=wrap;html=1;fontSize=18;fillColor=#fff2cc;strokeColor=#d6b656;" parent="1" vertex="1">
          <mxGeometry x="130" y="-25" width="110" height="50" as="geometry" />
        </mxCell>
        <mxCell id="eWxijm7cbxG42qx3YV4Q-9" value="" style="endArrow=none;html=1;rounded=0;exitX=1;exitY=0.5;exitDx=0;exitDy=0;entryX=0;entryY=0.75;entryDx=0;entryDy=0;fontSize=18;fillColor=#fff2cc;strokeColor=#d6b656;" parent="1" source="eWxijm7cbxG42qx3YV4Q-3" target="eWxijm7cbxG42qx3YV4Q-1" edge="1">
          <mxGeometry width="50" height="50" relative="1" as="geometry">
            <mxPoint x="10" y="190" as="sourcePoint" />
            <mxPoint x="60" y="140" as="targetPoint" />
          </mxGeometry>
        </mxCell>
        <mxCell id="eWxijm7cbxG42qx3YV4Q-10" value="" style="endArrow=none;html=1;rounded=0;exitX=1;exitY=1;exitDx=0;exitDy=0;entryX=0;entryY=0.25;entryDx=0;entryDy=0;fontSize=18;fillColor=#fff2cc;strokeColor=#d6b656;" parent="1" source="eWxijm7cbxG42qx3YV4Q-4" target="eWxijm7cbxG42qx3YV4Q-1" edge="1">
          <mxGeometry width="50" height="50" relative="1" as="geometry">
            <mxPoint x="-10" y="195" as="sourcePoint" />
            <mxPoint x="70" y="175" as="targetPoint" />
          </mxGeometry>
        </mxCell>
        <mxCell id="eWxijm7cbxG42qx3YV4Q-11" value="" style="endArrow=none;html=1;rounded=0;entryX=0;entryY=0;entryDx=0;entryDy=0;fontSize=18;fillColor=#fff2cc;strokeColor=#d6b656;" parent="1" source="eWxijm7cbxG42qx3YV4Q-6" target="eWxijm7cbxG42qx3YV4Q-7" edge="1">
          <mxGeometry width="50" height="50" relative="1" as="geometry">
            <mxPoint y="205" as="sourcePoint" />
            <mxPoint x="6" y="29" as="targetPoint" />
          </mxGeometry>
        </mxCell>
        <mxCell id="eWxijm7cbxG42qx3YV4Q-12" value="" style="endArrow=none;html=1;rounded=0;entryX=0.5;entryY=1;entryDx=0;entryDy=0;exitX=0.644;exitY=0.035;exitDx=0;exitDy=0;exitPerimeter=0;fontSize=18;fillColor=#fff2cc;strokeColor=#d6b656;" parent="1" source="eWxijm7cbxG42qx3YV4Q-7" target="eWxijm7cbxG42qx3YV4Q-5" edge="1">
          <mxGeometry width="50" height="50" relative="1" as="geometry">
            <mxPoint x="60" y="40" as="sourcePoint" />
            <mxPoint x="110" y="-10" as="targetPoint" />
          </mxGeometry>
        </mxCell>
        <mxCell id="eWxijm7cbxG42qx3YV4Q-13" value="" style="endArrow=none;html=1;rounded=0;exitX=0.25;exitY=0;exitDx=0;exitDy=0;entryX=0.714;entryY=0.995;entryDx=0;entryDy=0;entryPerimeter=0;fontSize=18;fillColor=#fff2cc;strokeColor=#d6b656;" parent="1" source="eWxijm7cbxG42qx3YV4Q-1" target="eWxijm7cbxG42qx3YV4Q-7" edge="1">
          <mxGeometry width="50" height="50" relative="1" as="geometry">
            <mxPoint x="20" y="130" as="sourcePoint" />
            <mxPoint x="70" y="80" as="targetPoint" />
          </mxGeometry>
        </mxCell>
        <mxCell id="eWxijm7cbxG42qx3YV4Q-14" value="" style="endArrow=none;html=1;rounded=0;exitX=0.617;exitY=0.004;exitDx=0;exitDy=0;exitPerimeter=0;entryX=0;entryY=1;entryDx=0;entryDy=0;fontSize=18;fillColor=#fff2cc;strokeColor=#d6b656;" parent="1" source="eWxijm7cbxG42qx3YV4Q-1" target="eWxijm7cbxG42qx3YV4Q-8" edge="1">
          <mxGeometry width="50" height="50" relative="1" as="geometry">
            <mxPoint x="140" y="110" as="sourcePoint" />
            <mxPoint x="190" y="60" as="targetPoint" />
          </mxGeometry>
        </mxCell>
        <mxCell id="eWxijm7cbxG42qx3YV4Q-15" value="&lt;u style=&quot;font-size: 18px;&quot;&gt;dept_id&lt;/u&gt;" style="ellipse;whiteSpace=wrap;html=1;fontSize=18;fillColor=#fff2cc;strokeColor=#d6b656;" parent="1" vertex="1">
          <mxGeometry x="580" y="-25" width="120" height="60" as="geometry" />
        </mxCell>
        <mxCell id="eWxijm7cbxG42qx3YV4Q-16" value="dept_name" style="ellipse;whiteSpace=wrap;html=1;fontSize=18;fillColor=#fff2cc;strokeColor=#d6b656;" parent="1" vertex="1">
          <mxGeometry x="750" y="10" width="120" height="60" as="geometry" />
        </mxCell>
        <mxCell id="eWxijm7cbxG42qx3YV4Q-17" value="" style="endArrow=none;html=1;rounded=0;exitX=0.5;exitY=0;exitDx=0;exitDy=0;entryX=0.385;entryY=0.992;entryDx=0;entryDy=0;entryPerimeter=0;fontSize=18;fillColor=#fff2cc;strokeColor=#d6b656;" parent="1" source="eWxijm7cbxG42qx3YV4Q-2" target="eWxijm7cbxG42qx3YV4Q-15" edge="1">
          <mxGeometry width="50" height="50" relative="1" as="geometry">
            <mxPoint x="570" y="80" as="sourcePoint" />
            <mxPoint x="620" y="30" as="targetPoint" />
          </mxGeometry>
        </mxCell>
        <mxCell id="eWxijm7cbxG42qx3YV4Q-18" value="" style="endArrow=none;html=1;rounded=0;entryX=0;entryY=1;entryDx=0;entryDy=0;exitX=0.75;exitY=0;exitDx=0;exitDy=0;fontSize=18;fillColor=#fff2cc;strokeColor=#d6b656;" parent="1" source="eWxijm7cbxG42qx3YV4Q-2" target="eWxijm7cbxG42qx3YV4Q-16" edge="1">
          <mxGeometry width="50" height="50" relative="1" as="geometry">
            <mxPoint x="710" y="120" as="sourcePoint" />
            <mxPoint x="760" y="70" as="targetPoint" />
          </mxGeometry>
        </mxCell>
        <mxCell id="eWxijm7cbxG42qx3YV4Q-19" value="&lt;font style=&quot;font-size: 18px;&quot;&gt;&lt;b style=&quot;font-size: 18px;&quot;&gt;courses&lt;/b&gt;&lt;/font&gt;" style="rounded=0;whiteSpace=wrap;html=1;fontSize=18;fillColor=#fff2cc;strokeColor=#d6b656;" parent="1" vertex="1">
          <mxGeometry x="40" y="520" width="120" height="60" as="geometry" />
        </mxCell>
        <mxCell id="eWxijm7cbxG42qx3YV4Q-20" value="&lt;u style=&quot;font-size: 18px;&quot;&gt;crs_id&lt;/u&gt;" style="ellipse;whiteSpace=wrap;html=1;fontSize=18;fillColor=#fff2cc;strokeColor=#d6b656;" parent="1" vertex="1">
          <mxGeometry x="-160" y="616.5" width="120" height="60" as="geometry" />
        </mxCell>
        <mxCell id="eWxijm7cbxG42qx3YV4Q-21" value="crs_name" style="ellipse;whiteSpace=wrap;html=1;fontSize=18;fillColor=#fff2cc;strokeColor=#d6b656;" parent="1" vertex="1">
          <mxGeometry x="-40" y="650" width="100" height="60" as="geometry" />
        </mxCell>
        <mxCell id="eWxijm7cbxG42qx3YV4Q-22" value="crs_duration" style="ellipse;whiteSpace=wrap;html=1;fontSize=18;fillColor=#fff2cc;strokeColor=#d6b656;" parent="1" vertex="1">
          <mxGeometry x="70" y="665" width="130" height="65" as="geometry" />
        </mxCell>
        <mxCell id="eWxijm7cbxG42qx3YV4Q-23" value="crs_description" style="ellipse;whiteSpace=wrap;html=1;fontSize=18;fillColor=#fff2cc;strokeColor=#d6b656;" parent="1" vertex="1">
          <mxGeometry x="160" y="613" width="130" height="57" as="geometry" />
        </mxCell>
        <mxCell id="eWxijm7cbxG42qx3YV4Q-24" value="" style="endArrow=none;html=1;rounded=0;exitX=1;exitY=0.5;exitDx=0;exitDy=0;entryX=0;entryY=1;entryDx=0;entryDy=0;fontSize=18;fillColor=#fff2cc;strokeColor=#d6b656;" parent="1" source="eWxijm7cbxG42qx3YV4Q-20" target="eWxijm7cbxG42qx3YV4Q-19" edge="1">
          <mxGeometry width="50" height="50" relative="1" as="geometry">
            <mxPoint y="590" as="sourcePoint" />
            <mxPoint x="50" y="540" as="targetPoint" />
          </mxGeometry>
        </mxCell>
        <mxCell id="eWxijm7cbxG42qx3YV4Q-25" value="" style="endArrow=none;html=1;rounded=0;entryX=0.25;entryY=1;entryDx=0;entryDy=0;exitX=0.702;exitY=0.05;exitDx=0;exitDy=0;exitPerimeter=0;fontSize=18;fillColor=#fff2cc;strokeColor=#d6b656;" parent="1" source="eWxijm7cbxG42qx3YV4Q-21" target="eWxijm7cbxG42qx3YV4Q-19" edge="1">
          <mxGeometry width="50" height="50" relative="1" as="geometry">
            <mxPoint x="-50" y="640" as="sourcePoint" />
            <mxPoint y="590" as="targetPoint" />
          </mxGeometry>
        </mxCell>
        <mxCell id="eWxijm7cbxG42qx3YV4Q-26" value="" style="endArrow=none;html=1;rounded=0;entryX=0.5;entryY=1;entryDx=0;entryDy=0;exitX=0.608;exitY=0.012;exitDx=0;exitDy=0;exitPerimeter=0;fontSize=18;fillColor=#fff2cc;strokeColor=#d6b656;" parent="1" source="eWxijm7cbxG42qx3YV4Q-22" target="eWxijm7cbxG42qx3YV4Q-19" edge="1">
          <mxGeometry width="50" height="50" relative="1" as="geometry">
            <mxPoint x="50" y="680" as="sourcePoint" />
            <mxPoint x="100" y="630" as="targetPoint" />
          </mxGeometry>
        </mxCell>
        <mxCell id="eWxijm7cbxG42qx3YV4Q-27" value="" style="endArrow=none;html=1;rounded=0;exitX=0.301;exitY=-0.011;exitDx=0;exitDy=0;exitPerimeter=0;entryX=0.654;entryY=0.995;entryDx=0;entryDy=0;entryPerimeter=0;fontSize=18;fillColor=#fff2cc;strokeColor=#d6b656;" parent="1" source="eWxijm7cbxG42qx3YV4Q-23" target="eWxijm7cbxG42qx3YV4Q-19" edge="1">
          <mxGeometry width="50" height="50" relative="1" as="geometry">
            <mxPoint x="80" y="630" as="sourcePoint" />
            <mxPoint x="130" y="580" as="targetPoint" />
          </mxGeometry>
        </mxCell>
        <mxCell id="eWxijm7cbxG42qx3YV4Q-28" value="take" style="rhombus;whiteSpace=wrap;html=1;fontSize=18;fillColor=#fff2cc;strokeColor=#d6b656;" parent="1" vertex="1">
          <mxGeometry x="80" y="310" width="80" height="80" as="geometry" />
        </mxCell>
        <mxCell id="eWxijm7cbxG42qx3YV4Q-29" value="" style="endArrow=none;html=1;rounded=0;exitX=0.5;exitY=0;exitDx=0;exitDy=0;fontSize=18;fillColor=#fff2cc;strokeColor=#d6b656;" parent="1" source="eWxijm7cbxG42qx3YV4Q-28" edge="1">
          <mxGeometry width="50" height="50" relative="1" as="geometry">
            <mxPoint x="70" y="230" as="sourcePoint" />
            <mxPoint x="120" y="180" as="targetPoint" />
          </mxGeometry>
        </mxCell>
        <mxCell id="eWxijm7cbxG42qx3YV4Q-30" value="" style="endArrow=none;html=1;rounded=0;exitX=0.654;exitY=0.009;exitDx=0;exitDy=0;exitPerimeter=0;entryX=0.5;entryY=1;entryDx=0;entryDy=0;fontSize=18;fillColor=#fff2cc;strokeColor=#d6b656;" parent="1" source="eWxijm7cbxG42qx3YV4Q-19" target="eWxijm7cbxG42qx3YV4Q-28" edge="1">
          <mxGeometry width="50" height="50" relative="1" as="geometry">
            <mxPoint x="60" y="440" as="sourcePoint" />
            <mxPoint x="110" y="390" as="targetPoint" />
          </mxGeometry>
        </mxCell>
        <mxCell id="eWxijm7cbxG42qx3YV4Q-31" value="m" style="text;html=1;align=center;verticalAlign=middle;resizable=0;points=[];autosize=1;fontSize=18;" parent="1" vertex="1">
          <mxGeometry x="130" y="468" width="40" height="40" as="geometry" />
        </mxCell>
        <mxCell id="eWxijm7cbxG42qx3YV4Q-32" value="m" style="text;html=1;align=center;verticalAlign=middle;resizable=0;points=[];autosize=1;fontSize=18;" parent="1" vertex="1">
          <mxGeometry x="120" y="180" width="40" height="40" as="geometry" />
        </mxCell>
        <mxCell id="eWxijm7cbxG42qx3YV4Q-33" value="grade" style="ellipse;whiteSpace=wrap;html=1;fontSize=18;fillColor=#fff2cc;strokeColor=#d6b656;" parent="1" vertex="1">
          <mxGeometry x="-220" y="320" width="120" height="60" as="geometry" />
        </mxCell>
        <mxCell id="eWxijm7cbxG42qx3YV4Q-34" value="" style="endArrow=none;html=1;rounded=0;entryX=0;entryY=0.5;entryDx=0;entryDy=0;exitX=1;exitY=0.5;exitDx=0;exitDy=0;fontSize=18;fillColor=#fff2cc;strokeColor=#d6b656;" parent="1" source="eWxijm7cbxG42qx3YV4Q-33" target="eWxijm7cbxG42qx3YV4Q-28" edge="1">
          <mxGeometry width="50" height="50" relative="1" as="geometry">
            <mxPoint x="-100" y="360" as="sourcePoint" />
            <mxPoint x="-50" y="310" as="targetPoint" />
          </mxGeometry>
        </mxCell>
        <mxCell id="eWxijm7cbxG42qx3YV4Q-35" value="instructors" style="rounded=0;whiteSpace=wrap;html=1;fontSize=18;fillColor=#fff2cc;strokeColor=#d6b656;" parent="1" vertex="1">
          <mxGeometry x="600" y="518" width="120" height="60" as="geometry" />
        </mxCell>
        <mxCell id="eWxijm7cbxG42qx3YV4Q-36" value="&lt;u style=&quot;font-size: 18px;&quot;&gt;ins_id&lt;/u&gt;" style="ellipse;whiteSpace=wrap;html=1;fontSize=18;fillColor=#fff2cc;strokeColor=#d6b656;" parent="1" vertex="1">
          <mxGeometry x="425" y="625" width="115" height="70" as="geometry" />
        </mxCell>
        <mxCell id="eWxijm7cbxG42qx3YV4Q-37" value="ins_name" style="ellipse;whiteSpace=wrap;html=1;fontSize=18;fillColor=#fff2cc;strokeColor=#d6b656;" parent="1" vertex="1">
          <mxGeometry x="540" y="665" width="120" height="70" as="geometry" />
        </mxCell>
        <mxCell id="eWxijm7cbxG42qx3YV4Q-38" value="ins_salary" style="ellipse;whiteSpace=wrap;html=1;fontSize=18;fillColor=#fff2cc;strokeColor=#d6b656;" parent="1" vertex="1">
          <mxGeometry x="800" y="538" width="110" height="62" as="geometry" />
        </mxCell>
        <mxCell id="eWxijm7cbxG42qx3YV4Q-39" value="ins_bouns" style="ellipse;whiteSpace=wrap;html=1;fontSize=18;fillColor=#fff2cc;strokeColor=#d6b656;" parent="1" vertex="1">
          <mxGeometry x="775" y="463" width="115" height="67" as="geometry" />
        </mxCell>
        <mxCell id="eWxijm7cbxG42qx3YV4Q-40" value="ins_hourrate" style="ellipse;whiteSpace=wrap;html=1;fontSize=18;fillColor=#fff2cc;strokeColor=#d6b656;" parent="1" vertex="1">
          <mxGeometry x="790" y="613" width="110" height="67" as="geometry" />
        </mxCell>
        <mxCell id="eWxijm7cbxG42qx3YV4Q-41" value="ins_salary" style="ellipse;whiteSpace=wrap;html=1;fontSize=18;fillColor=#fff2cc;strokeColor=#d6b656;" parent="1" vertex="1">
          <mxGeometry x="680" y="660" width="100" height="65" as="geometry" />
        </mxCell>
        <mxCell id="eWxijm7cbxG42qx3YV4Q-43" value="" style="endArrow=none;html=1;rounded=0;exitX=0.647;exitY=0.035;exitDx=0;exitDy=0;exitPerimeter=0;entryX=0;entryY=1;entryDx=0;entryDy=0;fontSize=18;fillColor=#fff2cc;strokeColor=#d6b656;" parent="1" source="eWxijm7cbxG42qx3YV4Q-36" target="eWxijm7cbxG42qx3YV4Q-35" edge="1">
          <mxGeometry width="50" height="50" relative="1" as="geometry">
            <mxPoint x="550" y="610" as="sourcePoint" />
            <mxPoint x="600" y="560" as="targetPoint" />
          </mxGeometry>
        </mxCell>
        <mxCell id="eWxijm7cbxG42qx3YV4Q-44" value="" style="endArrow=none;html=1;rounded=0;entryX=0.103;entryY=0.998;entryDx=0;entryDy=0;entryPerimeter=0;exitX=0.5;exitY=0;exitDx=0;exitDy=0;fontSize=18;fillColor=#fff2cc;strokeColor=#d6b656;" parent="1" source="eWxijm7cbxG42qx3YV4Q-37" target="eWxijm7cbxG42qx3YV4Q-35" edge="1">
          <mxGeometry width="50" height="50" relative="1" as="geometry">
            <mxPoint x="600" y="660" as="sourcePoint" />
            <mxPoint x="650" y="620" as="targetPoint" />
          </mxGeometry>
        </mxCell>
        <mxCell id="eWxijm7cbxG42qx3YV4Q-45" value="" style="endArrow=none;html=1;rounded=0;exitX=0.182;exitY=0.077;exitDx=0;exitDy=0;exitPerimeter=0;fontSize=18;fillColor=#fff2cc;strokeColor=#d6b656;" parent="1" source="eWxijm7cbxG42qx3YV4Q-41" edge="1">
          <mxGeometry width="50" height="50" relative="1" as="geometry">
            <mxPoint x="610" y="630" as="sourcePoint" />
            <mxPoint x="660" y="580" as="targetPoint" />
          </mxGeometry>
        </mxCell>
        <mxCell id="eWxijm7cbxG42qx3YV4Q-46" value="" style="endArrow=none;html=1;rounded=0;exitX=0;exitY=0.5;exitDx=0;exitDy=0;entryX=0.75;entryY=1;entryDx=0;entryDy=0;fontSize=18;fillColor=#fff2cc;strokeColor=#d6b656;" parent="1" source="eWxijm7cbxG42qx3YV4Q-40" target="eWxijm7cbxG42qx3YV4Q-35" edge="1">
          <mxGeometry width="50" height="50" relative="1" as="geometry">
            <mxPoint x="660" y="630" as="sourcePoint" />
            <mxPoint x="710" y="580" as="targetPoint" />
          </mxGeometry>
        </mxCell>
        <mxCell id="eWxijm7cbxG42qx3YV4Q-47" value="" style="endArrow=none;html=1;rounded=0;exitX=1;exitY=0.25;exitDx=0;exitDy=0;fontSize=18;fillColor=#fff2cc;strokeColor=#d6b656;" parent="1" source="eWxijm7cbxG42qx3YV4Q-35" edge="1">
          <mxGeometry width="50" height="50" relative="1" as="geometry">
            <mxPoint x="730" y="560" as="sourcePoint" />
            <mxPoint x="780" y="510" as="targetPoint" />
          </mxGeometry>
        </mxCell>
        <mxCell id="eWxijm7cbxG42qx3YV4Q-48" value="" style="endArrow=none;html=1;rounded=0;entryX=1;entryY=0.75;entryDx=0;entryDy=0;fontSize=18;fillColor=#fff2cc;strokeColor=#d6b656;" parent="1" source="eWxijm7cbxG42qx3YV4Q-38" target="eWxijm7cbxG42qx3YV4Q-35" edge="1">
          <mxGeometry width="50" height="50" relative="1" as="geometry">
            <mxPoint x="739.2893218813452" y="619" as="sourcePoint" />
            <mxPoint x="739.2893218813452" y="569" as="targetPoint" />
          </mxGeometry>
        </mxCell>
        <mxCell id="eWxijm7cbxG42qx3YV4Q-49" value="" style="endArrow=none;html=1;rounded=0;exitX=0.5;exitY=0;exitDx=0;exitDy=0;fontSize=18;fillColor=#fff2cc;strokeColor=#d6b656;" parent="1" source="eWxijm7cbxG42qx3YV4Q-50" edge="1">
          <mxGeometry width="50" height="50" relative="1" as="geometry">
            <mxPoint x="673" y="310" as="sourcePoint" />
            <mxPoint x="680" y="180" as="targetPoint" />
          </mxGeometry>
        </mxCell>
        <mxCell id="eWxijm7cbxG42qx3YV4Q-50" value="contains" style="rhombus;whiteSpace=wrap;html=1;fontSize=18;fillColor=#fff2cc;strokeColor=#d6b656;" parent="1" vertex="1">
          <mxGeometry x="640" y="310" width="80" height="80" as="geometry" />
        </mxCell>
        <mxCell id="eWxijm7cbxG42qx3YV4Q-51" value="" style="endArrow=none;html=1;rounded=0;exitX=0.654;exitY=-0.033;exitDx=0;exitDy=0;entryX=0.5;entryY=1;entryDx=0;entryDy=0;exitPerimeter=0;fontSize=18;fillColor=#fff2cc;strokeColor=#d6b656;" parent="1" source="eWxijm7cbxG42qx3YV4Q-35" target="eWxijm7cbxG42qx3YV4Q-50" edge="1">
          <mxGeometry width="50" height="50" relative="1" as="geometry">
            <mxPoint x="640" y="440" as="sourcePoint" />
            <mxPoint x="690" y="390" as="targetPoint" />
          </mxGeometry>
        </mxCell>
        <mxCell id="eWxijm7cbxG42qx3YV4Q-52" value="m" style="text;html=1;align=center;verticalAlign=middle;resizable=0;points=[];autosize=1;fontSize=18;" parent="1" vertex="1">
          <mxGeometry x="685" y="473" width="40" height="40" as="geometry" />
        </mxCell>
        <mxCell id="eWxijm7cbxG42qx3YV4Q-53" value="1" style="text;html=1;align=center;verticalAlign=middle;resizable=0;points=[];autosize=1;fontSize=18;" parent="1" vertex="1">
          <mxGeometry x="690" y="190" width="30" height="40" as="geometry" />
        </mxCell>
        <mxCell id="eWxijm7cbxG42qx3YV4Q-54" value="teach" style="rhombus;whiteSpace=wrap;html=1;fontSize=18;fillColor=#fff2cc;strokeColor=#d6b656;" parent="1" vertex="1">
          <mxGeometry x="320" y="520" width="80" height="80" as="geometry" />
        </mxCell>
        <mxCell id="eWxijm7cbxG42qx3YV4Q-55" value="" style="endArrow=none;html=1;rounded=0;entryX=0;entryY=0.5;entryDx=0;entryDy=0;fontSize=18;fillColor=#fff2cc;strokeColor=#d6b656;" parent="1" target="eWxijm7cbxG42qx3YV4Q-54" edge="1">
          <mxGeometry width="50" height="50" relative="1" as="geometry">
            <mxPoint x="160" y="560" as="sourcePoint" />
            <mxPoint x="210" y="510" as="targetPoint" />
          </mxGeometry>
        </mxCell>
        <mxCell id="eWxijm7cbxG42qx3YV4Q-57" value="" style="endArrow=none;html=1;rounded=0;exitX=1;exitY=0.5;exitDx=0;exitDy=0;entryX=0;entryY=0.75;entryDx=0;entryDy=0;fontSize=18;fillColor=#fff2cc;strokeColor=#d6b656;" parent="1" source="eWxijm7cbxG42qx3YV4Q-54" target="eWxijm7cbxG42qx3YV4Q-35" edge="1">
          <mxGeometry width="50" height="50" relative="1" as="geometry">
            <mxPoint x="420" y="550" as="sourcePoint" />
            <mxPoint x="470" y="500" as="targetPoint" />
          </mxGeometry>
        </mxCell>
        <mxCell id="eWxijm7cbxG42qx3YV4Q-58" value="m" style="text;html=1;align=center;verticalAlign=middle;resizable=0;points=[];autosize=1;fontSize=18;" parent="1" vertex="1">
          <mxGeometry x="180" y="518" width="40" height="40" as="geometry" />
        </mxCell>
        <mxCell id="eWxijm7cbxG42qx3YV4Q-59" value="m" style="text;html=1;align=center;verticalAlign=middle;resizable=0;points=[];autosize=1;strokeColor=#d6b656;fillColor=#fff2cc;fontSize=18;direction=south;" parent="1" vertex="1">
          <mxGeometry x="540" y="518" width="40" height="40" as="geometry" />
        </mxCell>
        <mxCell id="eWxijm7cbxG42qx3YV4Q-60" value="" style="endArrow=none;html=1;rounded=0;exitX=0.5;exitY=0;exitDx=0;exitDy=0;entryX=0.5;entryY=1;entryDx=0;entryDy=0;fontSize=18;fillColor=#fff2cc;strokeColor=#d6b656;" parent="1" source="eWxijm7cbxG42qx3YV4Q-61" target="eWxijm7cbxG42qx3YV4Q-54" edge="1">
          <mxGeometry width="50" height="50" relative="1" as="geometry">
            <mxPoint x="320" y="650" as="sourcePoint" />
            <mxPoint x="370" y="600" as="targetPoint" />
          </mxGeometry>
        </mxCell>
        <mxCell id="eWxijm7cbxG42qx3YV4Q-61" value="&#xa;&lt;b id=&quot;docs-internal-guid-f53498e3-7fff-ae79-9f51-f4895790f81a&quot; style=&quot;font-weight: normal; font-size: 18px;&quot;&gt;&lt;span style=&quot;font-size: 18px; font-family: Arial, sans-serif; color: rgb(0, 0, 0); background-color: transparent; font-weight: 400; font-style: normal; font-variant: normal; text-decoration: none; vertical-align: baseline;&quot;&gt;evaluation&lt;/span&gt;&lt;/b&gt;&#xa;&#xa;" style="ellipse;whiteSpace=wrap;html=1;fontSize=18;fillColor=#fff2cc;strokeColor=#d6b656;" parent="1" vertex="1">
          <mxGeometry x="300" y="710" width="120" height="80" as="geometry" />
        </mxCell>
        <mxCell id="eWxijm7cbxG42qx3YV4Q-62" value="classify" style="rhombus;whiteSpace=wrap;html=1;fontSize=18;fillColor=#fff2cc;strokeColor=#d6b656;" parent="1" vertex="1">
          <mxGeometry x="-230" y="508" width="80" height="80" as="geometry" />
        </mxCell>
        <mxCell id="eWxijm7cbxG42qx3YV4Q-63" value="topic" style="rounded=0;whiteSpace=wrap;html=1;fontSize=18;fillColor=#fff2cc;strokeColor=#d6b656;" parent="1" vertex="1">
          <mxGeometry x="-510" y="518" width="120" height="60" as="geometry" />
        </mxCell>
        <mxCell id="eWxijm7cbxG42qx3YV4Q-64" value="" style="endArrow=none;html=1;rounded=0;exitX=1;exitY=0.5;exitDx=0;exitDy=0;entryX=0;entryY=0.5;entryDx=0;entryDy=0;fontSize=18;fillColor=#fff2cc;strokeColor=#d6b656;" parent="1" source="eWxijm7cbxG42qx3YV4Q-62" target="eWxijm7cbxG42qx3YV4Q-19" edge="1">
          <mxGeometry width="50" height="50" relative="1" as="geometry">
            <mxPoint x="80" y="520" as="sourcePoint" />
            <mxPoint x="130" y="470" as="targetPoint" />
          </mxGeometry>
        </mxCell>
        <mxCell id="eWxijm7cbxG42qx3YV4Q-65" value="" style="endArrow=none;html=1;rounded=0;exitX=1;exitY=0.5;exitDx=0;exitDy=0;entryX=0;entryY=0.5;entryDx=0;entryDy=0;fontSize=18;fillColor=#fff2cc;strokeColor=#d6b656;" parent="1" source="eWxijm7cbxG42qx3YV4Q-63" target="eWxijm7cbxG42qx3YV4Q-62" edge="1">
          <mxGeometry width="50" height="50" relative="1" as="geometry">
            <mxPoint x="80" y="520" as="sourcePoint" />
            <mxPoint x="130" y="470" as="targetPoint" />
          </mxGeometry>
        </mxCell>
        <mxCell id="eWxijm7cbxG42qx3YV4Q-66" value="&lt;u style=&quot;font-size: 18px;&quot;&gt;top_id&lt;/u&gt;" style="ellipse;whiteSpace=wrap;html=1;fontSize=18;fillColor=#fff2cc;strokeColor=#d6b656;" parent="1" vertex="1">
          <mxGeometry x="-490" y="403" width="115" height="60" as="geometry" />
        </mxCell>
        <mxCell id="eWxijm7cbxG42qx3YV4Q-67" value="top_name" style="ellipse;whiteSpace=wrap;html=1;fontSize=18;fillColor=#fff2cc;strokeColor=#d6b656;" parent="1" vertex="1">
          <mxGeometry x="-510" y="657.5" width="110" height="62.5" as="geometry" />
        </mxCell>
        <mxCell id="eWxijm7cbxG42qx3YV4Q-68" value="" style="endArrow=none;html=1;rounded=0;entryX=0.396;entryY=1.021;entryDx=0;entryDy=0;entryPerimeter=0;exitX=0.546;exitY=0.033;exitDx=0;exitDy=0;exitPerimeter=0;fontSize=18;fillColor=#fff2cc;strokeColor=#d6b656;" parent="1" source="eWxijm7cbxG42qx3YV4Q-63" target="eWxijm7cbxG42qx3YV4Q-66" edge="1">
          <mxGeometry width="50" height="50" relative="1" as="geometry">
            <mxPoint x="-444" y="510" as="sourcePoint" />
            <mxPoint x="-450" y="450" as="targetPoint" />
          </mxGeometry>
        </mxCell>
        <mxCell id="eWxijm7cbxG42qx3YV4Q-70" value="" style="endArrow=none;html=1;rounded=0;exitX=0.635;exitY=-0.009;exitDx=0;exitDy=0;exitPerimeter=0;entryX=0.594;entryY=1.046;entryDx=0;entryDy=0;entryPerimeter=0;fontSize=18;fillColor=#fff2cc;strokeColor=#d6b656;" parent="1" source="eWxijm7cbxG42qx3YV4Q-67" target="eWxijm7cbxG42qx3YV4Q-63" edge="1">
          <mxGeometry width="50" height="50" relative="1" as="geometry">
            <mxPoint x="-440" y="528" as="sourcePoint" />
            <mxPoint x="-440" y="580" as="targetPoint" />
          </mxGeometry>
        </mxCell>
        <mxCell id="eWxijm7cbxG42qx3YV4Q-73" value="1" style="text;html=1;align=center;verticalAlign=middle;resizable=0;points=[];autosize=1;fontSize=18;" parent="1" vertex="1">
          <mxGeometry x="-380" y="513" width="30" height="40" as="geometry" />
        </mxCell>
        <mxCell id="eWxijm7cbxG42qx3YV4Q-74" value="m" style="text;html=1;align=center;verticalAlign=middle;resizable=0;points=[];autosize=1;fontSize=18;" parent="1" vertex="1">
          <mxGeometry x="-10" y="508" width="40" height="40" as="geometry" />
        </mxCell>
        <mxCell id="eWxijm7cbxG42qx3YV4Q-75" value="manage" style="rhombus;whiteSpace=wrap;html=1;fontSize=18;fillColor=#fff2cc;strokeColor=#d6b656;" parent="1" vertex="1">
          <mxGeometry x="530" y="310" width="80" height="80" as="geometry" />
        </mxCell>
        <mxCell id="eWxijm7cbxG42qx3YV4Q-76" value="" style="endArrow=none;html=1;rounded=0;entryX=0.151;entryY=1.065;entryDx=0;entryDy=0;entryPerimeter=0;exitX=0.5;exitY=0;exitDx=0;exitDy=0;fontSize=18;fillColor=#fff2cc;strokeColor=#d6b656;" parent="1" source="eWxijm7cbxG42qx3YV4Q-75" target="eWxijm7cbxG42qx3YV4Q-2" edge="1">
          <mxGeometry width="50" height="50" relative="1" as="geometry">
            <mxPoint x="570" y="260" as="sourcePoint" />
            <mxPoint x="620" y="210" as="targetPoint" />
          </mxGeometry>
        </mxCell>
        <mxCell id="eWxijm7cbxG42qx3YV4Q-77" value="" style="endArrow=none;html=1;rounded=0;entryX=0.25;entryY=1;entryDx=0;entryDy=0;fontSize=18;fillColor=#fff2cc;strokeColor=#d6b656;" parent="1" source="eWxijm7cbxG42qx3YV4Q-80" target="eWxijm7cbxG42qx3YV4Q-2" edge="1">
          <mxGeometry width="50" height="50" relative="1" as="geometry">
            <mxPoint x="510" y="450" as="sourcePoint" />
            <mxPoint x="560" y="400" as="targetPoint" />
          </mxGeometry>
        </mxCell>
        <mxCell id="eWxijm7cbxG42qx3YV4Q-78" value="" style="endArrow=none;html=1;rounded=0;entryX=0.5;entryY=1;entryDx=0;entryDy=0;exitX=0.25;exitY=0;exitDx=0;exitDy=0;fontSize=18;fillColor=#fff2cc;strokeColor=#d6b656;" parent="1" source="eWxijm7cbxG42qx3YV4Q-35" target="eWxijm7cbxG42qx3YV4Q-75" edge="1">
          <mxGeometry width="50" height="50" relative="1" as="geometry">
            <mxPoint x="630" y="510" as="sourcePoint" />
            <mxPoint x="590" y="410" as="targetPoint" />
          </mxGeometry>
        </mxCell>
        <mxCell id="eWxijm7cbxG42qx3YV4Q-79" value="1" style="text;html=1;align=center;verticalAlign=middle;resizable=0;points=[];autosize=1;fontSize=18;" parent="1" vertex="1">
          <mxGeometry x="615" y="468" width="30" height="40" as="geometry" />
        </mxCell>
        <mxCell id="eWxijm7cbxG42qx3YV4Q-81" value="&#xa;&lt;b id=&quot;docs-internal-guid-b247bb16-7fff-cc0a-15b0-750816887b6c&quot; style=&quot;font-weight: normal; font-size: 18px;&quot;&gt;&lt;span style=&quot;font-size: 18px; font-family: Arial, sans-serif; color: rgb(0, 0, 0); background-color: transparent; font-weight: 400; font-style: normal; font-variant: normal; text-decoration: none; vertical-align: baseline;&quot;&gt;hiring Date&lt;/span&gt;&lt;/b&gt;&#xa;&#xa;" style="ellipse;whiteSpace=wrap;html=1;fontSize=18;fillColor=#fff2cc;strokeColor=#d6b656;" parent="1" vertex="1">
          <mxGeometry x="330" y="320" width="120" height="60" as="geometry" />
        </mxCell>
        <mxCell id="eWxijm7cbxG42qx3YV4Q-82" value="" style="endArrow=none;html=1;rounded=0;exitX=1;exitY=0.5;exitDx=0;exitDy=0;fontSize=18;fillColor=#fff2cc;strokeColor=#d6b656;" parent="1" source="eWxijm7cbxG42qx3YV4Q-81" edge="1">
          <mxGeometry width="50" height="50" relative="1" as="geometry">
            <mxPoint x="480" y="400" as="sourcePoint" />
            <mxPoint x="530" y="350" as="targetPoint" />
          </mxGeometry>
        </mxCell>
        <mxCell id="eWxijm7cbxG42qx3YV4Q-83" value="locate" style="rhombus;whiteSpace=wrap;html=1;fontSize=18;fillColor=#fff2cc;strokeColor=#d6b656;" parent="1" vertex="1">
          <mxGeometry x="330" y="110" width="80" height="80" as="geometry" />
        </mxCell>
        <mxCell id="eWxijm7cbxG42qx3YV4Q-84" value="" style="endArrow=none;html=1;rounded=0;entryX=0;entryY=0.5;entryDx=0;entryDy=0;fontSize=18;fillColor=#fff2cc;strokeColor=#d6b656;exitX=1;exitY=0.75;exitDx=0;exitDy=0;exitPerimeter=0;" parent="1" source="eWxijm7cbxG42qx3YV4Q-86" target="eWxijm7cbxG42qx3YV4Q-83" edge="1">
          <mxGeometry width="50" height="50" relative="1" as="geometry">
            <mxPoint x="180" y="150" as="sourcePoint" />
            <mxPoint x="230" y="100" as="targetPoint" />
          </mxGeometry>
        </mxCell>
        <mxCell id="eWxijm7cbxG42qx3YV4Q-85" value="" style="endArrow=none;html=1;rounded=0;entryX=0;entryY=0.5;entryDx=0;entryDy=0;entryPerimeter=0;exitX=1;exitY=0.438;exitDx=0;exitDy=0;exitPerimeter=0;fontSize=18;fillColor=#fff2cc;strokeColor=#d6b656;" parent="1" source="eWxijm7cbxG42qx3YV4Q-83" target="eWxijm7cbxG42qx3YV4Q-2" edge="1">
          <mxGeometry width="50" height="50" relative="1" as="geometry">
            <mxPoint x="410" y="160" as="sourcePoint" />
            <mxPoint x="460" y="110" as="targetPoint" />
          </mxGeometry>
        </mxCell>
        <mxCell id="eWxijm7cbxG42qx3YV4Q-87" value="1" style="text;html=1;align=center;verticalAlign=middle;resizable=0;points=[];autosize=1;fontSize=18;" parent="1" vertex="1">
          <mxGeometry x="565" y="113" width="30" height="40" as="geometry" />
        </mxCell>
        <mxCell id="eWxijm7cbxG42qx3YV4Q-88" value="" style="endArrow=none;html=1;rounded=0;entryX=0.113;entryY=0.661;entryDx=0;entryDy=0;exitX=1;exitY=0.75;exitDx=0;exitDy=0;entryPerimeter=0;fontSize=18;fillColor=#fff2cc;strokeColor=#d6b656;" parent="1" source="eWxijm7cbxG42qx3YV4Q-1" target="eWxijm7cbxG42qx3YV4Q-83" edge="1">
          <mxGeometry width="50" height="50" relative="1" as="geometry">
            <mxPoint x="230" y="260" as="sourcePoint" />
            <mxPoint x="280" y="210" as="targetPoint" />
          </mxGeometry>
        </mxCell>
        <mxCell id="eWxijm7cbxG42qx3YV4Q-89" value="" style="endArrow=none;html=1;rounded=0;exitX=0.37;exitY=0.052;exitDx=0;exitDy=0;exitPerimeter=0;fontSize=18;fillColor=#fff2cc;strokeColor=#d6b656;" parent="1" source="eWxijm7cbxG42qx3YV4Q-28" edge="1">
          <mxGeometry width="50" height="50" relative="1" as="geometry">
            <mxPoint x="60" y="230" as="sourcePoint" />
            <mxPoint x="110" y="180" as="targetPoint" />
          </mxGeometry>
        </mxCell>
        <mxCell id="eWxijm7cbxG42qx3YV4Q-90" value="" style="endArrow=none;html=1;rounded=0;exitX=0.88;exitY=0.603;exitDx=0;exitDy=0;exitPerimeter=0;fontSize=18;fillColor=#fff2cc;strokeColor=#d6b656;" parent="1" source="eWxijm7cbxG42qx3YV4Q-62" edge="1">
          <mxGeometry width="50" height="50" relative="1" as="geometry">
            <mxPoint x="-10" y="600" as="sourcePoint" />
            <mxPoint x="40" y="560" as="targetPoint" />
          </mxGeometry>
        </mxCell>
        <mxCell id="eWxijm7cbxG42qx3YV4Q-91" value="" style="endArrow=none;html=1;rounded=0;fontSize=18;fillColor=#fff2cc;strokeColor=#d6b656;exitX=0.58;exitY=0;exitDx=0;exitDy=0;exitPerimeter=0;" parent="1" source="eWxijm7cbxG42qx3YV4Q-19" edge="1">
          <mxGeometry width="50" height="50" relative="1" as="geometry">
            <mxPoint x="110" y="510" as="sourcePoint" />
            <mxPoint x="110" y="380" as="targetPoint" />
          </mxGeometry>
        </mxCell>
        <mxCell id="eWxijm7cbxG42qx3YV4Q-92" value="" style="endArrow=none;html=1;rounded=0;fontSize=18;fillColor=#fff2cc;strokeColor=#d6b656;" parent="1" edge="1">
          <mxGeometry width="50" height="50" relative="1" as="geometry">
            <mxPoint x="670" y="520" as="sourcePoint" />
            <mxPoint x="670" y="380" as="targetPoint" />
          </mxGeometry>
        </mxCell>
        <mxCell id="eWxijm7cbxG42qx3YV4Q-93" value="" style="endArrow=none;html=1;rounded=0;exitX=0.358;exitY=0.073;exitDx=0;exitDy=0;exitPerimeter=0;fontSize=18;fillColor=#fff2cc;strokeColor=#d6b656;" parent="1" source="eWxijm7cbxG42qx3YV4Q-50" edge="1">
          <mxGeometry width="50" height="50" relative="1" as="geometry">
            <mxPoint x="820" y="260" as="sourcePoint" />
            <mxPoint x="669" y="180" as="targetPoint" />
          </mxGeometry>
        </mxCell>
        <mxCell id="eWxijm7cbxG42qx3YV4Q-95" value="" style="endArrow=none;html=1;rounded=0;entryX=0.25;entryY=1;entryDx=0;entryDy=0;fontSize=18;fillColor=#fff2cc;strokeColor=#d6b656;" parent="1" source="eWxijm7cbxG42qx3YV4Q-75" target="eWxijm7cbxG42qx3YV4Q-80" edge="1">
          <mxGeometry width="50" height="50" relative="1" as="geometry">
            <mxPoint x="580" y="320" as="sourcePoint" />
            <mxPoint x="630" y="180" as="targetPoint" />
          </mxGeometry>
        </mxCell>
        <mxCell id="eWxijm7cbxG42qx3YV4Q-80" value="1" style="text;html=1;align=center;verticalAlign=middle;resizable=0;points=[];autosize=1;fontSize=18;" parent="1" vertex="1">
          <mxGeometry x="610" y="180" width="30" height="40" as="geometry" />
        </mxCell>
        <mxCell id="eWxijm7cbxG42qx3YV4Q-96" value="" style="endArrow=none;html=1;rounded=0;entryX=0.002;entryY=0.818;entryDx=0;entryDy=0;fontSize=18;fillColor=#fff2cc;strokeColor=#d6b656;entryPerimeter=0;" parent="1" target="eWxijm7cbxG42qx3YV4Q-86" edge="1">
          <mxGeometry width="50" height="50" relative="1" as="geometry">
            <mxPoint x="180" y="150" as="sourcePoint" />
            <mxPoint x="330" y="150" as="targetPoint" />
          </mxGeometry>
        </mxCell>
        <mxCell id="eWxijm7cbxG42qx3YV4Q-86" value="m" style="text;html=1;align=center;verticalAlign=middle;resizable=0;points=[];autosize=1;fontSize=18;" parent="1" vertex="1">
          <mxGeometry x="190" y="120" width="40" height="40" as="geometry" />
        </mxCell>
      </root>
    </mxGraphModel>
  </diagram>
</mxfile>
